<!-- Generated by IcoMoon.io -->
<svg version="1.1" xmlns="http://www.w3.org/2000/svg" width="1024" height="1024" viewBox="0 0 1024 1024">
<title></title>
<g id="icomoon-ignore">
</g>
<path d="M908.557 267.211h-108.151v-108.151c0-19.123-7.597-37.462-21.118-50.983s-31.861-21.118-50.982-21.118h-432.608c-19.123 0-37.461 7.596-50.985 21.118-13.521 13.521-21.118 31.861-21.118 50.983v108.151h-108.151c-28.684 0-56.193 11.396-76.475 31.678s-31.677 47.791-31.677 76.476v504.708c0 19.121 7.596 37.461 21.118 50.982 13.522 13.523 31.861 21.118 50.983 21.118h865.215c19.123 0 37.461-7.595 50.982-21.118 13.523-13.521 21.118-31.861 21.118-50.982v-504.708c0-28.685-11.394-56.194-31.676-76.476s-47.791-31.678-76.476-31.678zM295.697 159.060h432.608v108.151h-432.608v-108.151zM944.608 880.073h-865.215v-324.457h288.404v180.254h288.405v-180.254h288.405v324.457zM439.9 555.616h144.203v108.151h-144.203v-108.151zM79.393 483.516v-108.151c0-9.562 3.798-18.731 10.559-25.493s15.93-10.558 25.492-10.558h793.113c9.562 0 18.731 3.797 25.493 10.558 6.761 6.763 10.558 15.932 10.558 25.493v108.151h-865.215z"></path>
</svg>
