<!-- Generated by IcoMoon.io -->
<svg version="1.1" xmlns="http://www.w3.org/2000/svg" width="1024" height="1024" viewBox="0 0 1024 1024">
<title></title>
<g id="icomoon-ignore">
</g>
<path d="M931.206 293.333h-838.4c-0.384 0-0.64 0.254-0.64 0.631v115.313c0 75.61 62.72 136.934 139.904 136.934 52.096 0 97.536-27.817 121.728-69.163 3.712-6.449 10.752-10.494 18.304-10.494s14.464 4.045 18.304 10.494c24.064 41.346 69.504 69.163 121.6 69.163 52.224 0 97.792-27.945 121.728-69.417 3.712-6.321 10.496-10.24 17.792-10.24h0.768c7.424 0 14.080 3.919 17.792 10.24 24.064 41.472 69.632 69.417 121.856 69.417 77.184 0 139.904-61.325 139.904-136.934v-115.313c0-0.378-0.256-0.631-0.64-0.631z"></path>
<path d="M985.6 202.429v-161.968c0-22.38-18.304-40.461-40.96-40.461h-865.279c-22.656 0-40.96 18.081-40.96 40.461v161.968c-21.376 1.264-38.4 18.841-38.4 40.334v166.519c-0.082 30.605 6.191 60.9 18.432 89.013 5.504 12.898 12.288 25.035 19.968 36.542v436.213c0 22.255 18.304 40.461 40.96 40.461h865.279c22.656 0 40.96-18.080 40.96-40.461v-436.213c7.802-11.535 14.485-23.77 19.968-36.542 12.16-28.194 18.432-58.161 18.432-89.013v-166.519c0-21.493-17.024-39.069-38.4-40.334zM130.561 91.036h762.879v111.266h-762.879v-111.266zM593.92 920.602h-163.84v-131.622h163.84v131.622zM893.952 920.602h-218.112v-172.083c0-22.379-18.304-40.461-40.96-40.461h-245.76c-22.656 0-40.96 18.082-40.96 40.461v172.083h-217.599v-306.234c3.712 1.769 7.552 3.539 11.52 5.056 28.544 11.887 58.88 17.828 90.111 17.828s61.44-5.941 90.112-17.828c17.664-7.332 34.304-16.689 49.536-27.942 0.256-0.126 0.512-0.126 0.768 0 15.279 11.3 31.919 20.687 49.536 27.942 28.544 11.887 58.88 17.828 90.112 17.828s61.44-5.941 90.112-17.828c17.664-7.332 34.304-16.689 49.536-27.942 0.256-0.126 0.512-0.126 0.768 0 15.279 11.3 31.919 20.687 49.536 27.942 28.544 11.887 58.88 17.828 90.112 17.828s61.44-5.941 90.112-17.828c3.84-1.643 7.68-3.287 11.52-5.056v306.234zM931.84 409.282c0 75.612-62.72 136.934-139.904 136.934-52.224 0-97.792-27.942-121.856-69.414-3.712-6.323-10.368-10.242-17.792-10.242h-0.768c-7.296 0-14.080 3.919-17.792 10.242-12.279 21.154-30.012 38.722-51.392 50.914s-45.649 18.575-70.336 18.5c-52.096 0-97.536-27.817-121.6-69.163-3.84-6.447-10.752-10.494-18.304-10.494s-14.592 4.047-18.304 10.494c-12.352 21.075-30.106 38.562-51.475 50.705-21.37 12.141-45.6 18.507-70.253 18.458-77.183 0-139.903-61.323-139.903-136.934v-115.311c0-0.38 0.256-0.634 0.64-0.634h838.399c0.384 0 0.64 0.254 0.64 0.634v115.311z"></path>
</svg>
