<?xml version="1.0" encoding="UTF-8"?>
<svg xmlns="http://www.w3.org/2000/svg" xmlns:xlink="http://www.w3.org/1999/xlink" width="210px" height="32px" viewBox="0 0 210 32" version="1.1">
<g id="surface1">
<path style=" stroke:none;fill-rule:nonzero;fill:rgb(0%,0%,0%);fill-opacity:1;" d="M 127.40625 27.414062 L 193.03125 17.414062 C 198.15625 16.632812 198.15625 15.367188 193.03125 14.585938 L 127.40625 4.585938 C 122.277344 3.804688 113.972656 3.804688 108.84375 4.585938 C 103.71875 5.367188 103.71875 6.632812 108.84375 7.414062 L 152.066406 14 L 26.25 14 C 19 14 13.125 14.894531 13.125 16 C 13.125 17.105469 19 18 26.25 18 L 152.066406 18 L 108.84375 24.585938 C 106.285156 24.976562 105 25.488281 105 26 C 105 26.511719 106.28125 27.023438 108.84375 27.414062 C 113.972656 28.195312 122.277344 28.195312 127.40625 27.414062 Z M 127.40625 27.414062 "/>
</g>
</svg>
