<svg id="Шар_1" data-name="Шар 1" xmlns="http://www.w3.org/2000/svg" viewBox="0 0 257.85 333.35">
  <defs>
    <style>
      .cls-1 {
        fill: #fff; 
      }

      .cls-2 {
        fill: #fff;
      }

      .cls-3 {
        fill: #08296e;
      }

      .cls-4 {
        fill: #2a7cc7;
      }

      .cls-5 {
        fill: none;
      }
    </style>
  </defs>
  <g>
    <g>
      <g>
        <g>
          <polygon class="cls-1" points="194.21 61.17 194.21 219.39 194.14 219.39 226.16 251.26 226.16 31.49 31.63 31.49 64.03 61.17 194.21 61.17"/>
          <path class="cls-2" d="M226.16,252.42a1.17,1.17,0,0,1-.82-.34l-32-31.87a1.16,1.16,0,0,1-.27-1.21V62.33H64a1.21,1.21,0,0,1-.78-.3L30.85,32.34a1.16,1.16,0,0,1,.78-2H226.16a1.16,1.16,0,0,1,1.15,1.16V251.26a1.16,1.16,0,0,1-1.15,1.16ZM195.36,219,225,248.48V32.64H34.6L64.48,60H194.21a1.15,1.15,0,0,1,1.15,1.15Z"/>
        </g>
        <g>
          <polygon class="cls-3" points="63.65 41.15 63.98 82.3 117.3 128.23 63.65 195 63.57 219.39 85.03 219.39 141.52 149.09 194.21 194.48 194.21 152.31 63.65 41.15"/>
          <path class="cls-2" d="M85,220.54H63.57a1.13,1.13,0,0,1-.81-.34,1.15,1.15,0,0,1-.34-.82L62.49,195a1.14,1.14,0,0,1,.26-.72l53-65.89L63.23,83.17a1.14,1.14,0,0,1-.41-.86l-.33-41.15a1.16,1.16,0,0,1,1.9-.89L195,151.44a1.12,1.12,0,0,1,.4.87v42.17a1.15,1.15,0,0,1-1.9.87l-51.79-44.6L85.93,220.11A1.16,1.16,0,0,1,85,220.54Zm-20.3-2.31H84.47l56.15-69.86a1.14,1.14,0,0,1,.8-.43,1.1,1.1,0,0,1,.85.28L193.06,192V152.85L64.82,43.67l.31,38.09,52.93,45.6a1.15,1.15,0,0,1,.14,1.59L64.8,195.41Z"/>
        </g>
        <g>
          <polygon class="cls-4" points="226.16 251.26 226.16 251.26 194.14 219.39 63.57 219.39 64.03 63.43 63.65 41.15 52.25 31.49 31.63 31.49 31.63 251.33 226.16 251.33 226.22 251.33 226.16 251.26"/>
          <path class="cls-2" d="M226.22,252.49H31.63a1.16,1.16,0,0,1-1.16-1.16V31.49a1.16,1.16,0,0,1,1.16-1.16H52.25a1.16,1.16,0,0,1,.75.28l11.39,9.66a1.16,1.16,0,0,1,.41.86l.39,22.28-.46,154.82H194.14a1.15,1.15,0,0,1,.82.34l32,31.88h0l.07.07a1.16,1.16,0,0,1-.82,2ZM32.78,250.18H223.43l-29.76-29.64H63.57a1.13,1.13,0,0,1-.81-.34,1.15,1.15,0,0,1-.34-.82l.46-155.95L62.5,41.69l-10.67-9h-19Z"/>
        </g>
      </g>
      <path class="cls-2" d="M210.06,236.39H47.52a1.16,1.16,0,0,1-1.16-1.16V46.29a1.16,1.16,0,0,1,.69-1.06,1.18,1.18,0,0,1,1.24.2L64.81,60.32A1.15,1.15,0,1,1,63.26,62L48.67,48.88v185.2H210.06a1.16,1.16,0,0,1,0,2.31Z"/>
      <path class="cls-2" d="M63.57,220.54a1.15,1.15,0,0,1-.89-1.88l75.65-92.72-75-63.89a1.15,1.15,0,0,1,1.49-1.76l75.91,64.62a1.16,1.16,0,0,1,.14,1.61l-76.36,93.6A1.15,1.15,0,0,1,63.57,220.54Z"/>
    </g>
    <rect class="cls-5" x="-0.01" width="80" height="80"/>
  </g>
</svg>
