<svg id="Шар_1" data-name="Шар 1" xmlns="http://www.w3.org/2000/svg" viewBox="0 0 257.85 333.35">
  <defs>
    <style>
      .cls-1 {
        fill: #08296e;
      }

      .cls-2 {
        fill: #ffffff;
      }
    </style>
  </defs>
  <g>
    <rect class="cls-1" x="-0.01" width="257.85" height="333.35"/>
    <path class="cls-2" d="M227.28,250.92V31.49a1.16,1.16,0,0,0-1.16-1.16H31.64a1.1,1.1,0,0,0-.4.08l-.11.06a.78.78,0,0,0-.24.16l-.09.08a1.51,1.51,0,0,0-.18.26l0,.08v0a1,1,0,0,0-.07.38s0,0,0,0V251.28a1.15,1.15,0,0,0,1.15,1.15H226.19a1.14,1.14,0,0,0,1.09-1.51ZM225,248.43l-29.63-29.5V61.17A1.16,1.16,0,0,0,194.19,60H87.59L64.4,40.27h0l-9-7.63H225ZM48.69,48.66l14,12.81.17,20.77-.4,137.1s0,0,0,0a.85.85,0,0,0,0,.23,1.17,1.17,0,0,0,.06.2,1.27,1.27,0,0,0,.13.19.67.67,0,0,0,.09.14l.06,0,0,0a1.86,1.86,0,0,0,.19.11l.13.07a1.15,1.15,0,0,0,.41.08H193.64L207.23,234H48.69ZM87.44,218.18l54.22-67.46L193,195v23.21ZM193,149.78,90.3,62.32H193Zm0,3v39.1l-50.77-43.73a1.13,1.13,0,0,0-.86-.28,1.14,1.14,0,0,0-.79.43L84.48,218.18H66l74.81-91.68a1.15,1.15,0,0,0-.15-1.61L67.18,62.32H86.74Zm-75-25.49L65.14,81.76l.06-18.09,73.12,62.24L64.75,216.09l.06-20.73,53.39-66.43A1.16,1.16,0,0,0,118.05,127.33ZM65.13,84.8l50.57,43.55L64.82,191.66Zm0-24.79-.29-16.32L84,60ZM51.84,32.64l10.66,9,.14,16.62-28-25.67Zm-19,1.47L46.38,46.55V235.18a1.15,1.15,0,0,0,1.15,1.16h162l13.84,13.78H32.8Z"/>
    <g>
      <path class="cls-2" d="M31.46,270.92V265.3H61v5.62H49.54v31.39H42.89V270.92Z"/>
      <path class="cls-2" d="M66.65,302.31v-37h6.71v31.39h16.3v5.62Z"/>
      <path class="cls-2" d="M95.46,302.31v-37h24.07v5.62H102.16v10h16.12v5.62H102.16v10.11h17.51v5.62Z"/>
      <path class="cls-2" d="M142.38,302.31v-37h2.26v34.91h18.07v2.1Z"/>
      <path class="cls-2" d="M171,302.31v-37h2.26v34.91h18.07v2.1Z"/>
      <path class="cls-2" d="M226.37,276.86h-2.31a12.09,12.09,0,0,0-1.35-3.64,13.11,13.11,0,0,0-2.56-3.18,12.48,12.48,0,0,0-14.89-1.14,13.66,13.66,0,0,0-4.9,5.7,24.14,24.14,0,0,0,0,18.44,13.48,13.48,0,0,0,4.9,5.68,12.39,12.39,0,0,0,6.71,1.92,12.17,12.17,0,0,0,4.56-.82,11.85,11.85,0,0,0,3.62-2.24,13,13,0,0,0,2.56-3.19,12.15,12.15,0,0,0,1.35-3.65h2.31a15.1,15.1,0,0,1-4.49,8.29,13.77,13.77,0,0,1-4.32,2.76,14.58,14.58,0,0,1-5.59,1,14.26,14.26,0,0,1-8.15-2.36,15.73,15.73,0,0,1-5.52-6.64,26.17,26.17,0,0,1,0-20,15.8,15.8,0,0,1,5.52-6.64,14.34,14.34,0,0,1,8.15-2.36,14.58,14.58,0,0,1,5.59,1,13.93,13.93,0,0,1,4.32,2.75,14.59,14.59,0,0,1,3,3.88A14.87,14.87,0,0,1,226.37,276.86Z"/>
    </g>
  </g>
</svg>
