<?xml version="1.0" encoding="UTF-8"?>
<svg xmlns="http://www.w3.org/2000/svg" xmlns:xlink="http://www.w3.org/1999/xlink" width="48px" height="48px" viewBox="0 0 48 48" version="1.1">
<g id="surface1">
<path style=" stroke:none;fill-rule:nonzero;fill:rgb(0%,0%,0%);fill-opacity:1;" d="M 42.589844 12.527344 L 37.519531 12.527344 L 37.519531 7.457031 C 37.519531 6.558594 37.164062 5.699219 36.527344 5.066406 C 35.894531 4.433594 35.035156 4.078125 34.140625 4.078125 L 13.859375 4.078125 C 12.964844 4.078125 12.105469 4.433594 11.472656 5.066406 C 10.835938 5.699219 10.480469 6.558594 10.480469 7.457031 L 10.480469 12.527344 L 5.410156 12.527344 C 4.066406 12.527344 2.777344 13.058594 1.828125 14.011719 C 0.875 14.960938 0.34375 16.25 0.34375 17.59375 L 0.34375 41.253906 C 0.34375 42.148438 0.699219 43.007812 1.332031 43.644531 C 1.964844 44.277344 2.824219 44.632812 3.722656 44.632812 L 44.277344 44.632812 C 45.175781 44.632812 46.035156 44.277344 46.667969 43.644531 C 47.300781 43.007812 47.65625 42.148438 47.65625 41.253906 L 47.65625 17.59375 C 47.65625 16.25 47.125 14.960938 46.171875 14.011719 C 45.222656 13.058594 43.933594 12.527344 42.589844 12.527344 Z M 13.859375 7.457031 L 34.140625 7.457031 L 34.140625 12.527344 L 13.859375 12.527344 Z M 44.277344 41.253906 L 3.722656 41.253906 L 3.722656 26.042969 L 17.242188 26.042969 L 17.242188 34.492188 L 30.757812 34.492188 L 30.757812 26.042969 L 44.277344 26.042969 Z M 20.621094 26.042969 L 27.378906 26.042969 L 27.378906 31.113281 L 20.621094 31.113281 Z M 3.722656 22.664062 L 3.722656 17.59375 C 3.722656 17.148438 3.898438 16.71875 4.214844 16.398438 C 4.535156 16.082031 4.964844 15.90625 5.410156 15.90625 L 42.589844 15.90625 C 43.035156 15.90625 43.464844 16.082031 43.785156 16.398438 C 44.101562 16.71875 44.277344 17.148438 44.277344 17.59375 L 44.277344 22.664062 Z M 3.722656 22.664062 "/>
</g>
</svg>
