<?xml version="1.0" encoding="UTF-8"?>
<svg xmlns="http://www.w3.org/2000/svg" xmlns:xlink="http://www.w3.org/1999/xlink" width="48px" height="48px" viewBox="0 0 48 48" version="1.1">
<defs>
<clipPath id="clip1">
  <path d="M 0 5 L 48 5 L 48 42.921875 L 0 42.921875 Z M 0 5 "/>
</clipPath>
</defs>
<g id="surface1">
<path style=" stroke:none;fill-rule:nonzero;fill:rgb(100%,100%,100%);fill-opacity:1;" d="M 29.140625 13.625 L 41.140625 13.625 L 41.140625 17.070312 L 29.140625 17.070312 Z M 29.140625 13.625 "/>
<path style=" stroke:none;fill-rule:nonzero;fill:rgb(100%,100%,100%);fill-opacity:1;" d="M 29.140625 22.238281 L 41.140625 22.238281 L 41.140625 25.683594 L 29.140625 25.683594 Z M 29.140625 22.238281 "/>
<path style=" stroke:none;fill-rule:nonzero;fill:rgb(100%,100%,100%);fill-opacity:1;" d="M 29.140625 30.851562 L 41.140625 30.851562 L 41.140625 34.296875 L 29.140625 34.296875 Z M 29.140625 30.851562 "/>
<g clip-path="url(#clip1)" clip-rule="nonzero">
<path style=" stroke:none;fill-rule:nonzero;fill:rgb(100%,100%,100%);fill-opacity:1;" d="M 44.566406 5.011719 L 3.433594 5.011719 C 2.523438 5.011719 1.652344 5.375 1.007812 6.019531 C 0.367188 6.667969 0.00390625 7.542969 0.00390625 8.457031 L 0.00390625 39.464844 C 0.00390625 40.378906 0.367188 41.253906 1.007812 41.898438 C 1.652344 42.546875 2.523438 42.910156 3.433594 42.910156 L 44.566406 42.910156 C 45.476562 42.910156 46.347656 42.542969 46.988281 41.898438 C 47.632812 41.253906 47.992188 40.378906 47.996094 39.464844 L 47.996094 8.457031 C 47.996094 7.542969 47.632812 6.667969 46.992188 6.019531 C 46.347656 5.375 45.476562 5.011719 44.566406 5.011719 Z M 3.433594 8.457031 L 22.285156 8.457031 L 22.285156 39.464844 L 3.433594 39.464844 Z M 25.714844 39.464844 L 25.714844 8.457031 L 44.566406 8.457031 L 44.570312 39.464844 Z M 25.714844 39.464844 "/>
</g>
</g>
</svg>
