<?xml version="1.0" encoding="UTF-8"?>
<svg xmlns="http://www.w3.org/2000/svg" xmlns:xlink="http://www.w3.org/1999/xlink" width="48px" height="48px" viewBox="0 0 48 48" version="1.1">
<g id="surface1">
<path style=" stroke:none;fill-rule:nonzero;fill:rgb(0%,0%,0%);fill-opacity:1;" d="M 43.648438 13.75 L 4.351562 13.75 C 4.332031 13.75 4.320312 13.761719 4.320312 13.78125 L 4.320312 19.183594 C 4.320312 22.730469 7.261719 25.605469 10.878906 25.605469 C 13.320312 25.605469 15.449219 24.300781 16.585938 22.363281 C 16.757812 22.058594 17.089844 21.871094 17.441406 21.871094 C 17.796875 21.871094 18.121094 22.058594 18.300781 22.363281 C 19.429688 24.300781 21.558594 25.605469 24 25.605469 C 26.449219 25.605469 28.585938 24.292969 29.707031 22.351562 C 29.878906 22.054688 30.199219 21.871094 30.539062 21.871094 L 30.578125 21.871094 C 30.925781 21.871094 31.234375 22.054688 31.410156 22.351562 C 32.539062 24.292969 34.675781 25.605469 37.121094 25.605469 C 40.742188 25.605469 43.679688 22.730469 43.679688 19.183594 L 43.679688 13.78125 C 43.679688 13.761719 43.667969 13.75 43.648438 13.75 Z M 43.648438 13.75 "/>
<path style=" stroke:none;fill-rule:nonzero;fill:rgb(0%,0%,0%);fill-opacity:1;" d="M 46.199219 9.488281 L 46.199219 1.898438 C 46.199219 0.847656 45.34375 0 44.28125 0 L 3.71875 0 C 2.65625 0 1.800781 0.847656 1.800781 1.898438 L 1.800781 9.488281 C 0.796875 9.546875 0 10.371094 0 11.378906 L 0 19.183594 C -0.00390625 20.621094 0.289062 22.039062 0.863281 23.359375 C 1.121094 23.960938 1.441406 24.53125 1.800781 25.070312 L 1.800781 45.519531 C 1.800781 46.5625 2.65625 47.414062 3.71875 47.414062 L 44.28125 47.414062 C 45.34375 47.414062 46.199219 46.566406 46.199219 45.519531 L 46.199219 25.070312 C 46.566406 24.53125 46.878906 23.957031 47.136719 23.359375 C 47.707031 22.035156 48 20.632812 48 19.183594 L 48 11.378906 C 48 10.371094 47.203125 9.546875 46.199219 9.488281 Z M 6.121094 4.265625 L 41.878906 4.265625 L 41.878906 9.484375 L 6.121094 9.484375 Z M 27.839844 43.152344 L 20.160156 43.152344 L 20.160156 36.984375 L 27.839844 36.984375 Z M 41.902344 43.152344 L 31.679688 43.152344 L 31.679688 35.085938 C 31.679688 34.039062 30.820312 33.191406 29.761719 33.191406 L 18.238281 33.191406 C 17.179688 33.191406 16.320312 34.039062 16.320312 35.085938 L 16.320312 43.152344 L 6.121094 43.152344 L 6.121094 28.796875 C 6.292969 28.882812 6.472656 28.964844 6.660156 29.035156 C 7.996094 29.59375 9.421875 29.871094 10.882812 29.871094 C 12.347656 29.871094 13.765625 29.59375 15.109375 29.035156 C 15.9375 28.691406 16.714844 28.253906 17.429688 27.726562 C 17.441406 27.71875 17.453125 27.71875 17.464844 27.726562 C 18.183594 28.253906 18.960938 28.695312 19.789062 29.035156 C 21.125 29.59375 22.546875 29.871094 24.011719 29.871094 C 25.476562 29.871094 26.890625 29.59375 28.234375 29.035156 C 29.0625 28.691406 29.84375 28.253906 30.558594 27.726562 C 30.570312 27.71875 30.582031 27.71875 30.59375 27.726562 C 31.308594 28.253906 32.089844 28.695312 32.914062 29.035156 C 34.253906 29.59375 35.675781 29.871094 37.140625 29.871094 C 38.605469 29.871094 40.019531 29.59375 41.363281 29.035156 C 41.542969 28.957031 41.722656 28.882812 41.902344 28.796875 Z M 43.679688 19.183594 C 43.679688 22.730469 40.738281 25.605469 37.121094 25.605469 C 34.675781 25.605469 32.539062 24.292969 31.410156 22.351562 C 31.234375 22.054688 30.925781 21.871094 30.574219 21.871094 L 30.539062 21.871094 C 30.199219 21.871094 29.878906 22.054688 29.707031 22.351562 C 29.128906 23.339844 28.300781 24.164062 27.296875 24.738281 C 26.292969 25.308594 25.15625 25.605469 24 25.605469 C 21.558594 25.605469 19.429688 24.300781 18.300781 22.363281 C 18.121094 22.058594 17.796875 21.871094 17.441406 21.871094 C 17.089844 21.871094 16.757812 22.058594 16.585938 22.363281 C 16.003906 23.351562 15.171875 24.167969 14.171875 24.738281 C 13.167969 25.308594 12.035156 25.605469 10.878906 25.605469 C 7.261719 25.605469 4.320312 22.730469 4.320312 19.183594 L 4.320312 13.78125 C 4.320312 13.761719 4.332031 13.75 4.351562 13.75 L 43.648438 13.75 C 43.667969 13.75 43.679688 13.761719 43.679688 13.78125 Z M 43.679688 19.183594 "/>
</g>
</svg>
