<svg aria-hidden="true" style="position: absolute; width: 0; height: 0; overflow: hidden;" version="1.1" xmlns="http://www.w3.org/2000/svg" xmlns:xlink="http://www.w3.org/1999/xlink">
<defs>
<symbol id="instagram" viewBox="0 0 32 32">
<path d="M16 2.881c4.275 0 4.781 0.019 6.462 0.094 1.563 0.069 2.406 0.331 2.969 0.55 0.744 0.288 1.281 0.638 1.837 1.194 0.563 0.563 0.906 1.094 1.2 1.838 0.219 0.563 0.481 1.412 0.55 2.969 0.075 1.688 0.094 2.194 0.094 6.463s-0.019 4.781-0.094 6.463c-0.069 1.563-0.331 2.406-0.55 2.969-0.288 0.744-0.637 1.281-1.194 1.837-0.563 0.563-1.094 0.906-1.837 1.2-0.563 0.219-1.413 0.481-2.969 0.55-1.688 0.075-2.194 0.094-6.463 0.094s-4.781-0.019-6.463-0.094c-1.563-0.069-2.406-0.331-2.969-0.55-0.744-0.288-1.281-0.637-1.838-1.194-0.563-0.563-0.906-1.094-1.2-1.837-0.219-0.563-0.481-1.413-0.55-2.969-0.075-1.688-0.094-2.194-0.094-6.463s0.019-4.781 0.094-6.463c0.069-1.563 0.331-2.406 0.55-2.969 0.288-0.744 0.638-1.281 1.194-1.838 0.563-0.563 1.094-0.906 1.838-1.2 0.563-0.219 1.412-0.481 2.969-0.55 1.681-0.075 2.188-0.094 6.463-0.094zM16 0c-4.344 0-4.887 0.019-6.594 0.094-1.7 0.075-2.869 0.35-3.881 0.744-1.056 0.412-1.95 0.956-2.837 1.85-0.894 0.888-1.438 1.781-1.85 2.831-0.394 1.019-0.669 2.181-0.744 3.881-0.075 1.713-0.094 2.256-0.094 6.6s0.019 4.887 0.094 6.594c0.075 1.7 0.35 2.869 0.744 3.881 0.413 1.056 0.956 1.95 1.85 2.837 0.887 0.887 1.781 1.438 2.831 1.844 1.019 0.394 2.181 0.669 3.881 0.744 1.706 0.075 2.25 0.094 6.594 0.094s4.888-0.019 6.594-0.094c1.7-0.075 2.869-0.35 3.881-0.744 1.050-0.406 1.944-0.956 2.831-1.844s1.438-1.781 1.844-2.831c0.394-1.019 0.669-2.181 0.744-3.881 0.075-1.706 0.094-2.25 0.094-6.594s-0.019-4.887-0.094-6.594c-0.075-1.7-0.35-2.869-0.744-3.881-0.394-1.063-0.938-1.956-1.831-2.844-0.887-0.887-1.781-1.438-2.831-1.844-1.019-0.394-2.181-0.669-3.881-0.744-1.712-0.081-2.256-0.1-6.6-0.1v0z"></path>
<path d="M16 7.781c-4.537 0-8.219 3.681-8.219 8.219s3.681 8.219 8.219 8.219 8.219-3.681 8.219-8.219c0-4.537-3.681-8.219-8.219-8.219zM16 21.331c-2.944 0-5.331-2.387-5.331-5.331s2.387-5.331 5.331-5.331c2.944 0 5.331 2.387 5.331 5.331s-2.387 5.331-5.331 5.331z"></path>
<path d="M26.462 7.456c0 1.060-0.859 1.919-1.919 1.919s-1.919-0.859-1.919-1.919c0-1.060 0.859-1.919 1.919-1.919s1.919 0.859 1.919 1.919z"></path>
</symbol>
<symbol id="twitter" viewBox="0 0 32 32">
<path d="M32 7.075c-1.175 0.525-2.444 0.875-3.769 1.031 1.356-0.813 2.394-2.1 2.887-3.631-1.269 0.75-2.675 1.3-4.169 1.594-1.2-1.275-2.906-2.069-4.794-2.069-3.625 0-6.563 2.938-6.563 6.563 0 0.512 0.056 1.012 0.169 1.494-5.456-0.275-10.294-2.888-13.531-6.862-0.563 0.969-0.887 2.1-0.887 3.3 0 2.275 1.156 4.287 2.919 5.463-1.075-0.031-2.087-0.331-2.975-0.819 0 0.025 0 0.056 0 0.081 0 3.181 2.263 5.838 5.269 6.437-0.55 0.15-1.131 0.231-1.731 0.231-0.425 0-0.831-0.044-1.237-0.119 0.838 2.606 3.263 4.506 6.131 4.563-2.25 1.762-5.075 2.813-8.156 2.813-0.531 0-1.050-0.031-1.569-0.094 2.913 1.869 6.362 2.95 10.069 2.95 12.075 0 18.681-10.006 18.681-18.681 0-0.287-0.006-0.569-0.019-0.85 1.281-0.919 2.394-2.075 3.275-3.394z"></path>
</symbol>
<symbol id="linkedin" viewBox="0 0 32 32">
<path d="M12 12h5.535v2.837h0.079c0.77-1.381 2.655-2.837 5.464-2.837 5.842 0 6.922 3.637 6.922 8.367v9.633h-5.769v-8.54c0-2.037-0.042-4.657-3.001-4.657-3.005 0-3.463 2.218-3.463 4.509v8.688h-5.767v-18z"></path>
<path d="M2 12h6v18h-6v-18z"></path>
<path d="M8 7c0 1.657-1.343 3-3 3s-3-1.343-3-3c0-1.657 1.343-3 3-3s3 1.343 3 3z"></path>
</symbol>
<symbol id="logo" xmlns="http://www.w3.org/2000/svg" viewBox="-0.6000000000000001 -0.6000000000000001 59.2 59.1" >
<path d="M51.1 23.5l5.5 5.5L29 56.5 1.4 28.9 29 1.4l22.1 22.1L29 45.6 12.4 29 29 12.3l22.1 22.1" fill="none" stroke="#282828" stroke-width="2" stroke-miterlimit="10"></path>
</symbol>
<symbol id="viber" viewBox="0 0 32 32">
<path fill="#665cac" style="fill: var(--color1, #665cac)" d="M15.197 0.003c-2.567 0.035-8.089 0.456-11.179 3.287-2.293 2.28-3.095 5.641-3.188 9.804-0.080 4.147-0.173 11.933 7.333 14.055v3.227c0 0-0.051 1.293 0.803 1.56 1.053 0.333 1.653-0.665 2.653-1.732l1.867-2.107c5.133 0.427 9.067-0.559 9.52-0.705 1.040-0.333 6.908-1.081 7.868-8.869 0.987-8.041-0.48-13.108-3.12-15.401l-0.013-0.003c-0.8-0.733-4-3.067-11.16-3.093 0 0-0.528-0.033-1.384-0.021zM15.287 2.265c0.727-0.004 1.173 0.027 1.173 0.027 6.053 0.013 8.948 1.84 9.628 2.453 2.227 1.905 3.371 6.475 2.533 13.189-0.8 6.507-5.56 6.92-6.44 7.2-0.373 0.12-3.84 0.973-8.203 0.693 0 0-3.252 3.921-4.265 4.935-0.16 0.173-0.347 0.227-0.467 0.2-0.173-0.040-0.227-0.253-0.213-0.547l0.027-5.359c-6.361-1.76-5.988-8.403-5.921-11.869 0.080-3.467 0.733-6.309 2.667-8.229 2.609-2.36 7.3-2.68 9.481-2.693zM15.767 5.732c-0 0-0.001 0-0.001 0-0.22 0-0.399 0.178-0.399 0.399 0 0 0 0 0 0v0c0 0.221 0.179 0.4 0.4 0.4v0c0.043-0.001 0.093-0.001 0.143-0.001 2.034 0 3.88 0.809 5.232 2.123l-0.002-0.002c1.453 1.413 2.161 3.307 2.188 5.787 0 0.221 0.179 0.4 0.4 0.4v0-0.012c0.221 0 0.4-0.179 0.4-0.4v0c0.005-0.109 0.008-0.236 0.008-0.364 0-2.326-0.923-4.436-2.423-5.985l0.002 0.002c-1.587-1.547-3.589-2.347-5.948-2.347zM10.495 6.652c-0.054-0.008-0.116-0.013-0.18-0.013-0.236 0-0.457 0.064-0.646 0.176l0.006-0.003h-0.016c-0.547 0.32-1.051 0.72-1.531 1.253-0.36 0.427-0.561 0.852-0.615 1.265-0.009 0.064-0.014 0.137-0.014 0.212 0 0.182 0.029 0.357 0.084 0.521l-0.003-0.012 0.027 0.013c0.458 1.331 0.998 2.476 1.646 3.549l-0.046-0.082c0.895 1.608 1.922 2.996 3.101 4.237l-0.008-0.009 0.040 0.053 0.053 0.040 0.080 0.080c1.236 1.174 2.628 2.205 4.136 3.053l0.104 0.054c1.76 0.96 2.829 1.413 3.469 1.6v0.013c0.187 0.053 0.357 0.080 0.531 0.080 0.57-0.043 1.079-0.274 1.471-0.631l-0.002 0.002c0.52-0.467 0.933-0.984 1.24-1.531v-0.013c0.307-0.573 0.2-1.121-0.24-1.495-0.845-0.742-1.782-1.421-2.781-2.007l-0.085-0.046c-0.68-0.373-1.373-0.147-1.653 0.227l-0.6 0.759c-0.307 0.373-0.867 0.32-0.867 0.32l-0.016 0.013c-4.16-1.067-5.267-5.279-5.267-5.279s-0.053-0.573 0.333-0.867l0.747-0.6c0.36-0.293 0.613-0.987 0.227-1.667-0.631-1.084-1.31-2.022-2.071-2.887l0.017 0.020c-0.166-0.204-0.399-0.349-0.665-0.399l-0.007-0.001zM16.459 7.839c-0.22 0.001-0.399 0.18-0.399 0.4s0.179 0.4 0.4 0.4c0 0 0.001 0 0.001 0h-0c1.388 0.025 2.636 0.607 3.532 1.532l0.001 0.001c0.75 0.825 1.209 1.926 1.209 3.134 0 0.103-0.003 0.205-0.010 0.306l0.001-0.014c0.001 0.22 0.18 0.399 0.4 0.399 0 0 0 0 0 0v0l0.013 0.016c0 0 0 0 0 0 0.221 0 0.4-0.179 0.4-0.4 0-0 0-0.001 0-0.001v0c0.040-1.587-0.453-2.92-1.427-3.987s-2.333-1.667-4.067-1.787c-0.008-0.001-0.018-0.001-0.028-0.001s-0.020 0-0.029 0.001l0.001-0zM17.112 9.997c-0.004-0-0.008-0-0.012-0-0.225 0-0.407 0.182-0.407 0.408 0 0.221 0.176 0.401 0.395 0.407h0.001c1.32 0.067 1.96 0.733 2.040 2.107 0.007 0.215 0.184 0.387 0.4 0.387 0 0 0 0 0 0h0.013c0.215-0.007 0.388-0.183 0.388-0.4 0-0.009-0-0.019-0.001-0.028l0 0.001c-0.093-1.787-1.067-2.788-2.8-2.881-0.002-0-0.005-0-0.008-0s-0.006 0-0.008 0h0z"></path>
</symbol>
<symbol id="telegram" viewBox="0 0 32 32">
<path fill="#2ca5e0" style="fill: var(--color2, #2ca5e0)" d="M31.88 5.053l-4.813 22.733c-0.333 1.613-1.307 2-2.667 1.253l-7.333-5.427-3.547 3.427c-0.4 0.4-0.733 0.747-1.467 0.747-0.96 0-0.8-0.36-1.12-1.267l-2.533-8.253-7.267-2.267c-1.573-0.467-1.587-1.547 0.347-2.333l28.347-10.933c1.293-0.573 2.533 0.32 2.053 2.32z"></path>
</symbol>
<symbol id="whatsapp" viewBox="0 0 32 32">
<path fill="#25d366" style="fill: var(--color3, #25d366)" d="M23.331 19.176c-0.401-0.2-2.356-1.156-2.72-1.288-0.364-0.135-0.631-0.2-0.897 0.2-0.263 0.393-1.028 1.285-1.259 1.549-0.233 0.26-0.465 0.28-0.861 0.1-0.4-0.2-1.684-0.62-3.204-1.98-1.184-1.060-1.979-2.36-2.213-2.76-0.232-0.4-0.025-0.62 0.173-0.82 0.181-0.18 0.401-0.46 0.601-0.697 0.195-0.241 0.259-0.401 0.396-0.661 0.133-0.28 0.065-0.5-0.033-0.699-0.1-0.2-0.896-2.16-1.229-2.941-0.32-0.779-0.649-0.68-0.896-0.68-0.229-0.020-0.495-0.020-0.761-0.020s-0.697 0.099-1.063 0.479c-0.364 0.4-1.393 1.36-1.393 3.3s1.427 3.82 1.625 4.1c0.199 0.26 2.807 4.26 6.8 5.98 0.952 0.4 1.693 0.64 2.272 0.839 0.952 0.303 1.82 0.26 2.507 0.161 0.765-0.121 2.356-0.961 2.688-1.901 0.34-0.94 0.34-1.72 0.24-1.9-0.099-0.18-0.36-0.28-0.76-0.46zM16.081 29h-0.021c-2.36 0-4.699-0.64-6.74-1.84l-0.48-0.285-5 1.3 1.34-4.86-0.319-0.5c-1.32-2.101-2.021-4.521-2.021-7.013 0-7.26 5.94-13.18 13.256-13.18 3.539 0 6.86 1.38 9.361 3.88 2.5 2.479 3.879 5.8 3.879 9.32-0.005 7.259-5.947 13.18-13.247 13.18zM27.36 4.599c-3.040-2.939-7.040-4.599-11.3-4.599-8.776 0-15.921 7.112-15.925 15.857 0 2.795 0.732 5.52 2.127 7.927l-2.261 8.216 8.447-2.203c2.328 1.257 4.947 1.925 7.613 1.929h0.008c8.78 0 15.928-7.115 15.932-15.861 0-4.235-1.653-8.22-4.66-11.215z"></path>
</symbol>
<symbol id="Logo" viewBox="0 0 73 32">
<path fill="#08296e" style="fill: var(--color1, #08296e)" d="M29.294 3.921v-0.496h4.436v0.501h-1.941v5.61h-0.558v-5.616z"></path>
<path fill="#08296e" style="fill: var(--color1, #08296e)" d="M35.534 9.641c-0.006 0-0.013 0-0.021 0-0.268 0-0.522-0.060-0.749-0.168l0.011 0.005c-0.226-0.106-0.411-0.268-0.543-0.468l-0.003-0.005c-0.126-0.2-0.201-0.442-0.201-0.703 0-0.016 0-0.033 0.001-0.049l-0 0.002c-0-0.011-0.001-0.023-0.001-0.036 0-0.195 0.047-0.379 0.132-0.541l-0.003 0.007c0.089-0.158 0.212-0.286 0.36-0.379l0.004-0.003c0.161-0.101 0.347-0.182 0.544-0.233l0.014-0.003c0.199-0.055 0.44-0.102 0.687-0.132l0.025-0.002q0.386-0.048 0.653-0.083c0.151-0.015 0.289-0.056 0.415-0.117l-0.007 0.003c0.085-0.046 0.141-0.134 0.141-0.235 0-0.006-0-0.011-0.001-0.016l0 0.001v-0.107c0.001-0.015 0.001-0.033 0.001-0.052 0-0.268-0.107-0.511-0.281-0.688l0 0q-0.285-0.269-0.805-0.269c-0.018-0.001-0.040-0.001-0.061-0.001-0.278 0-0.536 0.082-0.753 0.223l0.005-0.003c-0.19 0.127-0.34 0.301-0.434 0.506l-0.003 0.008-0.505-0.182c0.095-0.241 0.242-0.443 0.428-0.6l0.002-0.002c0.173-0.144 0.378-0.255 0.602-0.322l0.012-0.003c0.207-0.064 0.444-0.101 0.69-0.101 0 0 0.001 0 0.001 0h-0c0.195 0.001 0.384 0.026 0.564 0.072l-0.016-0.003c0.202 0.050 0.379 0.132 0.535 0.241l-0.005-0.003c0.169 0.121 0.303 0.279 0.394 0.462l0.003 0.007c0.097 0.205 0.153 0.445 0.153 0.698 0 0.021-0 0.043-0.001 0.064l0-0.003v3.113h-0.531v-0.726h-0.033c-0.161 0.319-0.424 0.567-0.746 0.704l-0.010 0.004c-0.185 0.078-0.401 0.123-0.627 0.123-0.014 0-0.028-0-0.041-0.001l0.002 0zM35.605 9.155c0.011 0 0.023 0 0.036 0 0.258 0 0.499-0.070 0.706-0.192l-0.006 0.004c0.202-0.122 0.365-0.292 0.476-0.493l0.003-0.007c0.106-0.195 0.169-0.427 0.169-0.674 0-0.004 0-0.008-0-0.011v0.001-0.667c-0.056 0.046-0.122 0.081-0.195 0.101l-0.004 0.001c-0.085 0.028-0.193 0.056-0.303 0.077l-0.017 0.003q-0.182 0.034-0.36 0.058l-0.323 0.041c-0.246 0.027-0.471 0.080-0.684 0.156l0.021-0.007c-0.168 0.057-0.31 0.153-0.419 0.279l-0.001 0.001c-0.092 0.116-0.148 0.264-0.148 0.425 0 0.011 0 0.022 0.001 0.033l-0-0.002c-0.001 0.011-0.001 0.024-0.001 0.037 0 0.247 0.117 0.467 0.298 0.608l0.002 0.001c0.195 0.143 0.439 0.228 0.704 0.228 0.016 0 0.032-0 0.048-0.001l-0.002 0z"></path>
<path fill="#08296e" style="fill: var(--color1, #08296e)" d="M38.933 9.537v-4.588h0.517v0.705h0.039c0.097-0.238 0.263-0.43 0.474-0.557l0.005-0.003c0.214-0.134 0.474-0.214 0.752-0.214 0.008 0 0.016 0 0.024 0l-0.001-0h0.146l0.135 0.007v0.54l-0.126-0.018c-0.055-0.007-0.119-0.011-0.184-0.011-0.004 0-0.007 0-0.011 0h0.001c-0.007-0-0.016-0-0.025-0-0.224 0-0.435 0.056-0.62 0.154l0.007-0.003c-0.361 0.193-0.602 0.567-0.602 0.998 0 0.010 0 0.021 0 0.031l-0-0.002v2.961z"></path>
<path fill="#08296e" style="fill: var(--color1, #08296e)" d="M42.042 9.537v-6.112h0.56v5.609h2.915v0.502z"></path>
<path fill="#08296e" style="fill: var(--color1, #08296e)" d="M49.579 7.783v-2.834h0.532v4.588h-0.532v-0.762h-0.041c-0.116 0.244-0.29 0.443-0.506 0.585l-0.005 0.003c-0.226 0.144-0.501 0.229-0.796 0.229-0.020 0-0.041-0-0.061-0.001l0.003 0c-0.012 0-0.026 0.001-0.040 0.001-0.272 0-0.528-0.070-0.75-0.193l0.008 0.004c-0.23-0.134-0.413-0.326-0.531-0.558l-0.004-0.008c-0.123-0.25-0.195-0.545-0.195-0.856 0-0.020 0-0.040 0.001-0.060l-0 0.003v-2.969h0.532v2.932c-0.001 0.017-0.001 0.036-0.001 0.056 0 0.313 0.121 0.597 0.318 0.81l-0.001-0.001c0.197 0.203 0.472 0.328 0.777 0.328 0.013 0 0.026-0 0.038-0.001l-0.002 0c0.219-0.001 0.424-0.056 0.604-0.153l-0.007 0.003c0.195-0.104 0.355-0.252 0.469-0.432l0.003-0.005c0.118-0.191 0.188-0.423 0.188-0.671 0-0.014-0-0.028-0.001-0.041l0 0.002z"></path>
<path fill="#08296e" style="fill: var(--color1, #08296e)" d="M51.843 4.949l1.183 1.956 1.183-1.956h0.618l-1.475 2.294 1.475 2.294h-0.618l-1.183-1.894-1.183 1.894h-0.615l1.458-2.294-1.458-2.294z"></path>
<path fill="#08296e" style="fill: var(--color1, #08296e)" d="M29.665 19.016v-6.113h3.548v0.502h-2.99v2.302h2.801v0.502h-2.801v2.309h3.050v0.501z"></path>
<path fill="#08296e" style="fill: var(--color1, #08296e)" d="M35.076 16.149v2.867h-0.531v-4.588h0.512v0.721h0.048c0.11-0.24 0.283-0.435 0.498-0.568l0.006-0.003c0.227-0.135 0.5-0.215 0.792-0.215 0.019 0 0.039 0 0.058 0.001l-0.003-0c0.011-0 0.024-0 0.037-0 0.284 0 0.551 0.072 0.784 0.198l-0.009-0.004c0.236 0.132 0.424 0.328 0.544 0.563l0.004 0.008c0.124 0.25 0.196 0.543 0.196 0.854 0 0.021-0 0.042-0.001 0.062l0-0.003v2.969h-0.531v-2.934c0.001-0.020 0.002-0.044 0.002-0.067 0-0.316-0.118-0.605-0.314-0.823l0.001 0.001c-0.202-0.203-0.481-0.329-0.79-0.329-0.019 0-0.038 0-0.056 0.001l0.003-0c-0.007-0-0.016-0-0.025-0-0.226 0-0.439 0.057-0.625 0.158l0.007-0.003c-0.188 0.106-0.339 0.258-0.44 0.442l-0.003 0.006c-0.103 0.19-0.164 0.415-0.164 0.655 0 0.011 0 0.023 0 0.034l-0-0.002z"></path>
<path fill="#08296e" style="fill: var(--color1, #08296e)" d="M41.171 20.833c-0.013 0-0.028 0-0.044 0-0.278 0-0.546-0.044-0.796-0.127l0.018 0.005c-0.229-0.076-0.426-0.189-0.596-0.332l0.003 0.002c-0.152-0.13-0.279-0.286-0.373-0.461l-0.004-0.009 0.436-0.287c0.077 0.13 0.164 0.243 0.265 0.343l0 0c0.12 0.118 0.264 0.212 0.424 0.274l0.009 0.003c0.183 0.073 0.395 0.115 0.616 0.115 0.015 0 0.030-0 0.045-0.001l-0.002 0c0.021 0.001 0.046 0.002 0.071 0.002 0.345 0 0.662-0.115 0.917-0.309l-0.004 0.003c0.249-0.202 0.375-0.518 0.375-0.947v-1.028h-0.050c-0.074 0.159-0.163 0.296-0.268 0.419l0.002-0.002c-0.125 0.143-0.277 0.258-0.448 0.339l-0.008 0.003c-0.189 0.088-0.411 0.139-0.644 0.139-0.017 0-0.034-0-0.050-0.001l0.002 0c-0.009 0-0.019 0-0.030 0-0.351 0-0.678-0.102-0.953-0.277l0.007 0.004c-0.291-0.191-0.52-0.455-0.664-0.766l-0.005-0.011c-0.154-0.334-0.244-0.725-0.244-1.136 0-0.025 0-0.050 0.001-0.075l-0 0.004c-0-0.017-0.001-0.038-0.001-0.058 0-0.422 0.088-0.823 0.246-1.187l-0.007 0.019c0.147-0.337 0.374-0.616 0.659-0.82l0.006-0.004c0.269-0.185 0.602-0.295 0.961-0.295 0.012 0 0.024 0 0.035 0l-0.002-0c0.016-0.001 0.034-0.001 0.052-0.001 0.235 0 0.458 0.055 0.655 0.152l-0.009-0.004c0.177 0.091 0.326 0.214 0.444 0.363l0.002 0.003c0.101 0.121 0.191 0.256 0.266 0.401l0.006 0.012h0.054v-0.876h0.52v4.708c0.001 0.025 0.002 0.053 0.002 0.083 0 0.325-0.091 0.63-0.248 0.889l0.004-0.008c-0.164 0.247-0.394 0.439-0.665 0.552l-0.010 0.004c-0.273 0.114-0.591 0.18-0.924 0.18-0.018 0-0.037-0-0.055-0.001l0.003 0zM41.134 18.482c0.011 0 0.025 0.001 0.039 0.001 0.267 0 0.515-0.080 0.722-0.217l-0.005 0.003c0.215-0.152 0.381-0.361 0.478-0.604l0.003-0.009c0.107-0.265 0.169-0.573 0.169-0.895 0-0.021-0-0.041-0.001-0.062l0 0.003c0-0.014 0-0.029 0-0.045 0-0.327-0.060-0.639-0.171-0.927l0.006 0.018c-0.1-0.265-0.264-0.487-0.473-0.654l-0.003-0.002c-0.2-0.151-0.452-0.242-0.726-0.242-0.013 0-0.027 0-0.040 0.001l0.002-0c-0.011-0-0.023-0.001-0.036-0.001-0.279 0-0.537 0.093-0.743 0.251l0.003-0.002c-0.214 0.173-0.378 0.398-0.474 0.658l-0.003 0.011c-0.103 0.268-0.162 0.579-0.162 0.903 0 0.012 0 0.023 0 0.035l-0-0.002c-0 0.014-0 0.031-0 0.047 0 0.317 0.061 0.619 0.171 0.896l-0.006-0.016c0.101 0.257 0.266 0.47 0.477 0.625l0.004 0.003c0.205 0.141 0.458 0.226 0.732 0.226 0.014 0 0.027-0 0.041-0.001l-0.002 0z"></path>
<path fill="#08296e" style="fill: var(--color1, #08296e)" d="M44.752 13.64c-0.001 0-0.003 0-0.004 0-0.108 0-0.206-0.044-0.277-0.114l0 0c-0.072-0.068-0.117-0.164-0.117-0.271s0.045-0.203 0.117-0.27l0-0c0.073-0.069 0.172-0.112 0.28-0.112s0.207 0.043 0.281 0.112l-0-0c0.072 0.068 0.117 0.164 0.117 0.271s-0.045 0.203-0.117 0.27l-0 0c-0.071 0.071-0.169 0.114-0.278 0.114-0.001 0-0.001 0-0.002 0h0zM44.48 19.016v-4.588h0.534v4.588z"></path>
<path fill="#08296e" style="fill: var(--color1, #08296e)" d="M46.956 16.149v2.867h-0.531v-4.588h0.516v0.721h0.048c0.11-0.24 0.283-0.435 0.498-0.568l0.006-0.003c0.227-0.135 0.5-0.215 0.792-0.215 0.019 0 0.039 0 0.058 0.001l-0.003-0c0.011-0 0.024-0 0.036-0 0.284 0 0.552 0.072 0.785 0.198l-0.009-0.004c0.236 0.132 0.424 0.328 0.544 0.563l0.004 0.008c0.124 0.25 0.196 0.543 0.196 0.854 0 0.021-0 0.042-0.001 0.062l0-0.003v2.969h-0.531v-2.934c0.001-0.020 0.002-0.043 0.002-0.066 0-0.319-0.12-0.609-0.318-0.828l0.001 0.001c-0.202-0.203-0.482-0.329-0.791-0.329-0.019 0-0.037 0-0.056 0.001l0.003-0c-0.008-0-0.016-0-0.025-0-0.226 0-0.438 0.057-0.623 0.158l0.007-0.003c-0.188 0.106-0.34 0.258-0.441 0.442l-0.003 0.006c-0.103 0.19-0.164 0.415-0.164 0.655 0 0.013 0 0.025 0.001 0.038l-0-0.002z"></path>
<path fill="#08296e" style="fill: var(--color1, #08296e)" d="M53.154 19.112c-0.015 0-0.033 0.001-0.051 0.001-0.393 0-0.759-0.112-1.069-0.306l0.008 0.005c-0.314-0.204-0.562-0.487-0.719-0.822l-0.005-0.012c-0.162-0.344-0.256-0.748-0.256-1.173 0-0.020 0-0.039 0.001-0.058l-0 0.003c-0-0.015-0-0.034-0-0.052 0-0.428 0.094-0.834 0.264-1.198l-0.007 0.018c0.16-0.347 0.402-0.633 0.701-0.841l0.007-0.004c0.285-0.192 0.635-0.306 1.013-0.306 0.012 0 0.024 0 0.036 0l-0.002-0c0.002 0 0.004 0 0.006 0 0.257 0 0.502 0.049 0.727 0.139l-0.013-0.005c0.244 0.099 0.451 0.24 0.623 0.415l0 0c0.188 0.195 0.337 0.429 0.433 0.688l0.004 0.014c0.102 0.279 0.162 0.602 0.162 0.938 0 0.021-0 0.043-0.001 0.064l0-0.003v0.263h-3.584v-0.469h3.039c0-0.009 0-0.020 0-0.030 0-0.28-0.066-0.545-0.183-0.779l0.005 0.010c-0.114-0.231-0.281-0.42-0.487-0.556l-0.005-0.003c-0.207-0.13-0.458-0.207-0.728-0.207-0.286 0-0.553 0.087-0.773 0.236l0.005-0.003c-0.221 0.158-0.396 0.365-0.513 0.606l-0.004 0.009c-0.12 0.243-0.191 0.53-0.191 0.833 0 0.002 0 0.003 0 0.005v-0 0.28c-0 0.015-0.001 0.032-0.001 0.050 0 0.328 0.070 0.639 0.197 0.919l-0.006-0.014c0.118 0.263 0.303 0.477 0.533 0.628l0.006 0.003c0.238 0.141 0.524 0.225 0.83 0.225 0.204 0 0.4-0.037 0.58-0.105l-0.011 0.004c0.162-0.066 0.3-0.159 0.416-0.274v0c0.106-0.106 0.192-0.231 0.253-0.37l0.003-0.008 0.505 0.164c-0.078 0.209-0.195 0.388-0.343 0.536v0c-0.164 0.165-0.361 0.298-0.58 0.389l-0.012 0.004c-0.231 0.096-0.5 0.151-0.782 0.151-0.011 0-0.021-0-0.032-0l0.002 0z"></path>
<path fill="#08296e" style="fill: var(--color1, #08296e)" d="M56.182 19.016v-4.588h0.516v0.706h0.039c0.097-0.238 0.264-0.431 0.474-0.558l0.005-0.003c0.215-0.134 0.476-0.214 0.755-0.214 0.007 0 0.014 0 0.021 0h0.28v0.541l-0.126-0.018c-0.058-0.008-0.124-0.013-0.192-0.013-0.001 0-0.002 0-0.002 0h0c-0.007-0-0.016-0-0.025-0-0.224 0-0.436 0.056-0.62 0.156l0.007-0.003c-0.361 0.192-0.602 0.566-0.602 0.996 0 0.011 0 0.022 0 0.033l-0-0.002v2.963z"></path>
<path fill="#08296e" style="fill: var(--color1, #08296e)" d="M59.46 13.64c-0.001 0-0.003 0-0.004 0-0.108 0-0.206-0.044-0.277-0.114l0 0c-0.072-0.068-0.118-0.164-0.118-0.271s0.045-0.203 0.117-0.27l0-0c0.073-0.069 0.171-0.112 0.28-0.112s0.207 0.043 0.28 0.112l-0-0c0.072 0.068 0.117 0.164 0.117 0.271s-0.045 0.203-0.117 0.27l-0 0c-0.071 0.071-0.169 0.114-0.278 0.114-0 0-0.001 0-0.001 0h0zM59.188 19.016v-4.588h0.534v4.588z"></path>
<path fill="#08296e" style="fill: var(--color1, #08296e)" d="M61.664 16.149v2.867h-0.531v-4.588h0.516v0.721h0.048c0.11-0.24 0.283-0.434 0.498-0.568l0.006-0.003c0.227-0.135 0.5-0.215 0.792-0.215 0.019 0 0.039 0 0.058 0.001l-0.003-0c0.011-0 0.024-0 0.037-0 0.284 0 0.551 0.072 0.784 0.198l-0.009-0.004c0.237 0.132 0.424 0.328 0.543 0.563l0.003 0.008c0.124 0.249 0.197 0.542 0.197 0.853 0 0.021-0 0.043-0.001 0.064l0-0.003v2.969h-0.532v-2.934c0.001-0.020 0.002-0.043 0.002-0.066 0-0.319-0.12-0.609-0.318-0.828l0.001 0.001c-0.202-0.203-0.481-0.329-0.79-0.329-0.019 0-0.038 0-0.056 0.001l0.003-0c-0.008-0-0.016-0-0.025-0-0.226 0-0.438 0.057-0.623 0.158l0.007-0.003c-0.188 0.106-0.34 0.258-0.441 0.442l-0.003 0.006c-0.103 0.19-0.164 0.415-0.164 0.655 0 0.013 0 0.025 0.001 0.038l-0-0.002z"></path>
<path fill="#08296e" style="fill: var(--color1, #08296e)" d="M67.758 20.833c-0.013 0-0.028 0-0.044 0-0.278 0-0.546-0.044-0.796-0.127l0.018 0.005c-0.229-0.076-0.426-0.189-0.597-0.332l0.003 0.002c-0.152-0.13-0.279-0.286-0.373-0.461l-0.004-0.009 0.436-0.287c0.077 0.13 0.165 0.243 0.265 0.343l0 0c0.121 0.117 0.264 0.211 0.424 0.274l0.009 0.003c0.183 0.073 0.395 0.115 0.616 0.115 0.015 0 0.030-0 0.045-0.001l-0.002 0c0.022 0.001 0.047 0.002 0.072 0.002 0.344 0 0.662-0.115 0.916-0.309l-0.004 0.003c0.25-0.202 0.375-0.518 0.375-0.947v-1.028h-0.048c-0.074 0.159-0.163 0.296-0.268 0.419l0.002-0.002c-0.125 0.143-0.277 0.258-0.448 0.339l-0.008 0.003c-0.189 0.088-0.411 0.139-0.644 0.139-0.017 0-0.034-0-0.050-0.001l0.002 0c-0.009 0-0.019 0-0.030 0-0.35 0-0.677-0.102-0.951-0.277l0.007 0.004c-0.291-0.191-0.52-0.455-0.664-0.766l-0.005-0.011c-0.15-0.329-0.238-0.714-0.238-1.12 0-0.034 0.001-0.069 0.002-0.103l-0 0.005c-0-0.017-0.001-0.038-0.001-0.058 0-0.422 0.088-0.823 0.246-1.187l-0.007 0.019c0.147-0.337 0.374-0.616 0.659-0.82l0.006-0.004c0.269-0.185 0.602-0.295 0.961-0.295 0.012 0 0.024 0 0.035 0l-0.002-0c0.016-0.001 0.034-0.001 0.052-0.001 0.235 0 0.458 0.055 0.655 0.152l-0.009-0.004c0.178 0.092 0.327 0.215 0.446 0.363l0.002 0.003c0.098 0.123 0.186 0.263 0.258 0.411l0.006 0.014h0.054v-0.876h0.522v4.708c0.001 0.021 0.001 0.045 0.001 0.069 0 0.329-0.093 0.636-0.253 0.897l0.004-0.007c-0.164 0.247-0.394 0.439-0.665 0.552l-0.010 0.004c-0.275 0.115-0.594 0.182-0.929 0.182-0.017 0-0.034-0-0.050-0l0.002 0zM67.722 18.482c0.012 0 0.025 0.001 0.039 0.001 0.267 0 0.515-0.080 0.722-0.217l-0.005 0.003c0.215-0.152 0.381-0.361 0.478-0.604l0.003-0.009c0.107-0.265 0.169-0.573 0.169-0.895 0-0.021-0-0.041-0.001-0.062l0 0.003c0-0.014 0-0.029 0-0.045 0-0.327-0.060-0.639-0.171-0.927l0.006 0.018c-0.1-0.265-0.264-0.487-0.473-0.654l-0.003-0.002c-0.2-0.151-0.452-0.242-0.725-0.242-0.014 0-0.027 0-0.041 0.001l0.002-0c-0.011-0-0.023-0.001-0.036-0.001-0.279 0-0.537 0.093-0.743 0.251l0.003-0.002c-0.214 0.173-0.378 0.398-0.474 0.658l-0.003 0.011c-0.102 0.268-0.161 0.577-0.161 0.9 0 0.013 0 0.025 0 0.038l-0-0.002c-0 0.015-0.001 0.032-0.001 0.050 0 0.316 0.060 0.617 0.17 0.894l-0.006-0.016c0.101 0.257 0.267 0.47 0.478 0.625l0.004 0.003c0.204 0.141 0.457 0.226 0.73 0.226 0.014 0 0.028-0 0.042-0.001l-0.002 0z"></path>
<path fill="#08296e" style="fill: var(--color1, #08296e)" d="M29.665 28.497v-6.115h0.558v5.615h2.915v0.502z"></path>
<path fill="#08296e" style="fill: var(--color1, #08296e)" d="M34.396 28.497v-6.115h0.558v5.615h2.915v0.502z"></path>
<path fill="#08296e" style="fill: var(--color1, #08296e)" d="M43.68 24.291h-0.562c-0.045-0.22-0.124-0.414-0.233-0.589l0.004 0.007c-0.222-0.36-0.555-0.633-0.951-0.774l-0.013-0.004c-0.197-0.072-0.424-0.114-0.661-0.114-0.004 0-0.007 0-0.011 0h0.001c-0.006-0-0.013-0-0.019-0-0.385 0-0.743 0.112-1.045 0.306l0.008-0.005c-0.33 0.219-0.591 0.52-0.756 0.873l-0.005 0.013c-0.181 0.423-0.285 0.915-0.285 1.431s0.105 1.009 0.295 1.456l-0.009-0.024c0.171 0.366 0.431 0.665 0.754 0.878l0.008 0.005c0.294 0.188 0.653 0.3 1.037 0.3 0.007 0 0.013-0 0.020-0h-0.001c0.002 0 0.003 0 0.005 0 0.239 0 0.468-0.042 0.68-0.119l-0.014 0.004c0.213-0.076 0.398-0.181 0.56-0.312l-0.004 0.003c0.32-0.26 0.547-0.623 0.631-1.038l0.002-0.011h0.562c-0.052 0.294-0.149 0.557-0.285 0.795l0.006-0.012c-0.278 0.487-0.71 0.859-1.228 1.054l-0.016 0.005c-0.258 0.096-0.557 0.152-0.868 0.152-0.011 0-0.021-0-0.032-0h0.002c-0.014 0-0.030 0-0.046 0-0.492 0-0.95-0.145-1.334-0.393l0.010 0.006c-0.406-0.27-0.727-0.64-0.93-1.076l-0.007-0.016c-0.214-0.491-0.339-1.063-0.339-1.664s0.125-1.173 0.35-1.691l-0.011 0.027c0.211-0.451 0.531-0.821 0.927-1.086l0.010-0.006c0.375-0.243 0.833-0.388 1.325-0.388 0.016 0 0.032 0 0.048 0l-0.002-0c0.008-0 0.017-0 0.026-0 0.313 0 0.613 0.056 0.891 0.158l-0.018-0.006c0.279 0.102 0.519 0.246 0.727 0.426l-0.003-0.002c0.206 0.179 0.38 0.389 0.515 0.623l0.006 0.012c0.132 0.229 0.23 0.495 0.28 0.778l0.002 0.015z"></path>
<path fill="#e6e6e6" style="fill: var(--color2, #e6e6e6)" d="M22.177 6.838v18.066h-0.008l3.656 3.64v-25.097h-22.214l3.7 3.39h14.866z"></path>
<path fill="#fff" style="fill: var(--color3, #fff)" d="M25.826 28.676c-0 0-0.001 0-0.001 0-0.036 0-0.069-0.014-0.093-0.038l0 0-3.654-3.64c-0.024-0.024-0.039-0.057-0.039-0.093 0-0.016 0.003-0.031 0.008-0.046l-0 0.001v-17.894h-14.739c-0 0-0 0-0 0-0.034 0-0.066-0.013-0.089-0.034l0 0-3.696-3.392c-0.026-0.024-0.043-0.059-0.043-0.097 0-0.073 0.059-0.131 0.131-0.131 0 0 0 0 0.001 0h22.214c0.073 0 0.131 0.059 0.131 0.131v0 25.105c0 0 0 0 0 0 0 0.055-0.033 0.102-0.080 0.122l-0.001 0c-0.013 0.004-0.027 0.006-0.042 0.006-0.003 0-0.006-0-0.008-0l0 0zM22.309 24.857l3.385 3.37v-24.647h-21.742l3.412 3.125h14.814c0 0 0 0 0 0 0.073 0 0.131 0.059 0.131 0.131 0 0 0 0.001 0 0.001v-0z"></path>
<path fill="#08296e" style="fill: var(--color1, #08296e)" d="M7.268 4.551l0.038 4.699 6.089 5.245-6.126 7.625-0.009 2.785h2.451l6.451-8.027 6.017 5.182v-4.814l-14.909-12.695z"></path>
<path fill="#fff" style="fill: var(--color3, #fff)" d="M9.706 25.037h-2.447c-0.073-0.001-0.131-0.060-0.131-0.132 0 0 0 0 0 0v0l0.008-2.785c0-0 0-0 0-0 0-0.031 0.011-0.060 0.030-0.082l-0 0 6.052-7.525-5.997-5.161c-0.028-0.024-0.046-0.060-0.047-0.099v-0l-0.038-4.699c0.002-0.051 0.033-0.093 0.076-0.114l0.001-0c0.016-0.008 0.035-0.013 0.055-0.013 0.033 0 0.062 0.012 0.085 0.032l-0-0 14.915 12.688c0.028 0.024 0.046 0.059 0.046 0.099 0 0 0 0.001 0 0.002v-0 4.814c0 0 0 0.001 0 0.001 0 0.073-0.059 0.131-0.131 0.131-0.033 0-0.063-0.012-0.086-0.032l0 0-5.914-5.094-6.37 7.92c-0.024 0.031-0.061 0.050-0.103 0.050-0.001 0-0.002-0-0.004-0h0zM7.388 24.773h2.258l6.412-7.979c0.025-0.030 0.062-0.048 0.103-0.048 0.033 0 0.063 0.012 0.086 0.031l-0-0 5.8 4.995v-4.466l-14.644-12.467 0.035 4.351 6.044 5.206c0.028 0.024 0.045 0.060 0.045 0.1 0 0.032-0.011 0.061-0.029 0.083l0-0-6.098 7.588z"></path>
<path fill="#0829b2" style="fill: var(--color4, #0829b2)" d="M25.826 28.545v0l-3.656-3.64h-14.91l0.053-17.808-0.043-2.545-1.302-1.103h-2.355v25.105l22.214-0.008z"></path>
<path fill="#fff" style="fill: var(--color3, #fff)" d="M25.832 28.684h-22.221c0 0-0 0-0 0-0.073 0-0.132-0.059-0.132-0.132 0-0.001 0-0.002 0-0.004v0-25.101c-0-0.001-0-0.003-0-0.005 0-0.073 0.059-0.131 0.131-0.131 0 0 0.001 0 0.001 0h2.355c0 0 0.001 0 0.001 0 0.032 0 0.062 0.012 0.085 0.031l-0-0 1.301 1.111c0.028 0.024 0.046 0.060 0.047 0.099v0l0.045 2.544-0.053 17.679h14.778c0 0 0 0 0 0 0.036 0 0.069 0.014 0.093 0.038l-0-0 3.662 3.648c0.026 0.024 0.043 0.059 0.043 0.097 0 0.073-0.059 0.131-0.131 0.131-0.002 0-0.004-0-0.006-0h0zM3.743 28.42h21.771l-3.398-3.384h-14.856c-0.073-0.001-0.131-0.060-0.131-0.132 0 0 0 0 0 0v0l0.053-17.814-0.043-2.477-1.218-1.028h-2.17z"></path>
<path fill="#fff" style="fill: var(--color3, #fff)" d="M23.987 26.845h-18.561c-0 0-0.001 0-0.001 0-0.073 0-0.131-0.059-0.131-0.131 0 0 0 0 0 0v0-21.575c0.001-0.072 0.060-0.13 0.132-0.13 0.034 0 0.065 0.013 0.088 0.034l-0-0 1.886 1.696c0.023 0.024 0.038 0.057 0.038 0.093 0 0.073-0.059 0.132-0.132 0.132-0.031 0-0.060-0.011-0.083-0.029l0 0-1.666-1.499v21.147h18.429c0.068 0.006 0.12 0.063 0.12 0.132s-0.052 0.125-0.12 0.132l-0.001 0z"></path>
<path fill="#fff" style="fill: var(--color3, #fff)" d="M7.259 25.037c-0.073-0.001-0.131-0.060-0.131-0.132 0-0.032 0.011-0.061 0.030-0.084l-0 0 8.639-10.588-8.564-7.295c-0.029-0.024-0.047-0.060-0.047-0.1 0-0.033 0.012-0.063 0.032-0.086l-0 0c0.024-0.027 0.059-0.044 0.098-0.044 0.031 0 0.060 0.011 0.083 0.030l-0-0 8.668 7.378c0.028 0.024 0.046 0.060 0.046 0.1 0 0.032-0.011 0.061-0.030 0.084l0-0-8.72 10.688c-0.024 0.030-0.061 0.049-0.103 0.049v0z"></path>
</symbol>
<symbol id="phone" viewBox="0 0 32 32">
<path d="M22 20c-2 2-2 4-4 4s-4-2-6-4-4-4-4-6 2-2 4-4-4-8-6-8-6 6-6 6c0 4 4.109 12.109 8 16s12 8 16 8c0 0 6-4 6-6s-6-8-8-6z"></path>
</symbol>
<symbol id="mail" viewBox="0 0 32 32">
<path d="M29 4h-26c-1.65 0-3 1.35-3 3v20c0 1.65 1.35 3 3 3h26c1.65 0 3-1.35 3-3v-20c0-1.65-1.35-3-3-3zM12.461 17.199l-8.461 6.59v-15.676l8.461 9.086zM5.512 8h20.976l-10.488 7.875-10.488-7.875zM12.79 17.553l3.21 3.447 3.21-3.447 6.58 8.447h-19.579l6.58-8.447zM19.539 17.199l8.461-9.086v15.676l-8.461-6.59z"></path>
</symbol>
</defs>
</svg>



